<?xml version="1.0" encoding="iso-8859-1"?>
<!-- Generator: Adobe Illustrator 19.0.0, SVG Export Plug-In . SVG Version: 6.00 Build 0)  -->
<svg version="1.1" id="Capa_1" xmlns="http://www.w3.org/2000/svg" xmlns:xlink="http://www.w3.org/1999/xlink" x="0px" y="0px"
	 viewBox="0 0 490 490" style="enable-background:new 0 0 490 490;" xml:space="preserve">
<path d="M483.983,280.212l-35.787-16.899V113.052c0-5.758-4.669-10.425-10.426-10.425H344.2V10.426C344.2,4.668,339.532,0,333.775,0
	H156.133c-5.757,0-10.426,4.668-10.426,10.426v92.201H52.143c-5.757,0-10.426,4.667-10.426,10.425V263.31L5.925,280.212
	c-8.425,4.782-5.819,13-4.007,15.515l136.647,189.936c1.955,2.723,5.105,4.337,8.46,4.337h195.855c3.355,0,6.505-1.614,8.46-4.337
	l136.647-189.936C489.801,293.213,492.67,285.096,483.983,280.212z M166.559,20.851h156.791v81.776H166.559V20.851z M26.155,293.717
	l208.373-98.396v273.828h-82.156L26.155,293.717z M240.516,169.434c-0.005,0.002-0.011,0.004-0.016,0.007L62.568,253.464V123.478
	h364.777v129.989l-177.937-84.026C244.509,167.101,240.571,169.409,240.516,169.434z M337.536,469.149h-82.157V195.321
	l208.374,98.396L337.536,469.149z"/>
<path d="M297.865,268.254l-21.625-15.47l12.136-16.961l21.625,15.47L297.865,268.254z M179.907,251.292l12.136,16.962l21.625-15.47
	l-12.136-16.961L179.907,251.292z"/>
<g>
</g>
<g>
</g>
<g>
</g>
<g>
</g>
<g>
</g>
<g>
</g>
<g>
</g>
<g>
</g>
<g>
</g>
<g>
</g>
<g>
</g>
<g>
</g>
<g>
</g>
<g>
</g>
<g>
</g>
</svg>
